<mxfile host="app.diagrams.net" agent="Mozilla/5.0 (Windows NT 10.0; Win64; x64) AppleWebKit/537.36 (KHTML, like Gecko) Chrome/138.0.0.0 Safari/537.36" version="28.0.4">
  <diagram name="RAG Architecture" id="U-5v3utx11rVQzWTmpdb">
    <mxGraphModel dx="1912" dy="1038" grid="1" gridSize="10" guides="1" tooltips="1" connect="1" arrows="1" fold="1" page="1" pageScale="1" pageWidth="850" pageHeight="1100" math="0" shadow="0">
      <root>
        <mxCell id="0" />
        <mxCell id="1" parent="0" />
        <mxCell id="fET1vYGd_N3q2Cj0eivk-2" value="Detailed RAG Architecture - UHG Meeting Document AI" style="text;html=1;strokeColor=none;fillColor=none;align=center;verticalAlign=middle;whiteSpace=wrap;rounded=0;fontSize=24;fontStyle=1;fontColor=#002677;" vertex="1" parent="1">
          <mxGeometry x="570" y="300" width="800" height="40" as="geometry" />
        </mxCell>
        <mxCell id="fET1vYGd_N3q2Cj0eivk-3" value="" style="rounded=1;whiteSpace=wrap;html=1;fillColor=#E8F4FF;strokeColor=#002677;strokeWidth=3;align=center;" vertex="1" parent="1">
          <mxGeometry x="220" y="350" width="1500" height="320" as="geometry" />
        </mxCell>
        <mxCell id="fET1vYGd_N3q2Cj0eivk-4" value="Document Ingestion &amp;amp; Preprocessing Pipeline" style="text;html=1;strokeColor=none;fillColor=none;align=center;verticalAlign=middle;whiteSpace=wrap;rounded=0;fontSize=20;fontStyle=1;fontColor=#002677;" vertex="1" parent="1">
          <mxGeometry x="770" y="365" width="400" height="30" as="geometry" />
        </mxCell>
        <mxCell id="fET1vYGd_N3q2Cj0eivk-5" value="Raw Documents&lt;br&gt;📄 PDF Files&lt;br&gt;📝 DOCX Files&lt;br&gt;📋 TXT Files&lt;br&gt;Size: up to 50MB" style="rounded=1;whiteSpace=wrap;html=1;fillColor=#FFFFFF;strokeColor=#002677;strokeWidth=2;fontSize=11;align=center;" vertex="1" parent="1">
          <mxGeometry x="250" y="410" width="160" height="100" as="geometry" />
        </mxCell>
        <mxCell id="fET1vYGd_N3q2Cj0eivk-6" value="Document Parser&lt;br&gt;PyPDF2 (PDF)&lt;br&gt;python-docx (DOCX)&lt;br&gt;Text extraction&lt;br&gt;Encoding handling" style="rounded=1;whiteSpace=wrap;html=1;fillColor=#FFE8E8;strokeColor=#FF612B;strokeWidth=2;fontSize=11;align=center;" vertex="1" parent="1">
          <mxGeometry x="450" y="410" width="180" height="100" as="geometry" />
        </mxCell>
        <mxCell id="fET1vYGd_N3q2Cj0eivk-7" value="Metadata Extractor&lt;br&gt;GPT-4o Analysis:&lt;br&gt;• Title extraction&lt;br&gt;• Participants detection&lt;br&gt;• Topics &amp;amp; actions" style="rounded=1;whiteSpace=wrap;html=1;fillColor=#E8FFE8;strokeColor=#28A745;strokeWidth=2;fontSize=11;align=center;" vertex="1" parent="1">
          <mxGeometry x="670" y="410" width="200" height="100" as="geometry" />
        </mxCell>
        <mxCell id="fET1vYGd_N3q2Cj0eivk-8" value="Text Splitter&lt;br&gt;RecursiveCharacterTextSplitter&lt;br&gt;Chunk size: 1000&lt;br&gt;Overlap: 200&lt;br&gt;Semantic boundaries" style="rounded=1;whiteSpace=wrap;html=1;fillColor=#FFF4EC;strokeColor=#FF612B;strokeWidth=2;fontSize=11;align=center;" vertex="1" parent="1">
          <mxGeometry x="910" y="410" width="200" height="100" as="geometry" />
        </mxCell>
        <mxCell id="fET1vYGd_N3q2Cj0eivk-9" value="Embedding Generator&lt;br&gt;OpenAI API&lt;br&gt;text-embedding-3-large&lt;br&gt;3072 dimensions&lt;br&gt;Batch processing" style="rounded=1;whiteSpace=wrap;html=1;fillColor=#FFE5CC;strokeColor=#FFC107;strokeWidth=2;fontSize=11;align=center;" vertex="1" parent="1">
          <mxGeometry x="1150" y="410" width="200" height="100" as="geometry" />
        </mxCell>
        <mxCell id="fET1vYGd_N3q2Cj0eivk-10" value="Storage System&lt;br&gt;SQLite: Metadata &amp;amp; chunks&lt;br&gt;FAISS: Vector index (IndexFlatIP)&lt;br&gt;File System: Original docs&lt;br&gt;User/Project/Folder hierarchy" style="rounded=1;whiteSpace=wrap;html=1;fillColor=#E5F5FF;strokeColor=#17A2B8;strokeWidth=2;fontSize=11;align=center;" vertex="1" parent="1">
          <mxGeometry x="1390" y="410" width="300" height="100" as="geometry" />
        </mxCell>
        <mxCell id="fET1vYGd_N3q2Cj0eivk-11" value="Processing Details&lt;br&gt;• Date extraction from filename (YYYYMMDD_HHMMSS pattern)&lt;br&gt;• Content summarization using GPT-4o (max 500 chars)&lt;br&gt;• Chunk position tracking (start_char, end_char)&lt;br&gt;• Vector normalization for cosine similarity" style="rounded=1;whiteSpace=wrap;html=1;fillColor=#F0F0F0;strokeColor=#666666;strokeWidth=1;fontSize=10;align=center;" vertex="1" parent="1">
          <mxGeometry x="250" y="540" width="700" height="100" as="geometry" />
        </mxCell>
        <mxCell id="fET1vYGd_N3q2Cj0eivk-12" value="Vector Storage Details&lt;br&gt;• FAISS IndexFlatIP for inner product similarity&lt;br&gt;• L2 normalization for cosine similarity equivalence&lt;br&gt;• Persistent index saved to disk (vector_index.faiss)&lt;br&gt;• In-memory chunk_metadata dictionary for fast lookup" style="rounded=1;whiteSpace=wrap;html=1;fillColor=#F0F0F0;strokeColor=#666666;strokeWidth=1;fontSize=10;align=center;" vertex="1" parent="1">
          <mxGeometry x="990" y="540" width="700" height="100" as="geometry" />
        </mxCell>
        <mxCell id="fET1vYGd_N3q2Cj0eivk-13" value="" style="rounded=1;whiteSpace=wrap;html=1;fillColor=#FFE8E8;strokeColor=#FF612B;strokeWidth=3;align=center;" vertex="1" parent="1">
          <mxGeometry x="220" y="700" width="1500" height="400" as="geometry" />
        </mxCell>
        <mxCell id="fET1vYGd_N3q2Cj0eivk-14" value="Query Processing &amp;amp; Retrieval Pipeline" style="text;html=1;strokeColor=none;fillColor=none;align=center;verticalAlign=middle;whiteSpace=wrap;rounded=0;fontSize=20;fontStyle=1;fontColor=#FF612B;" vertex="1" parent="1">
          <mxGeometry x="770" y="715" width="400" height="30" as="geometry" />
        </mxCell>
        <mxCell id="fET1vYGd_N3q2Cj0eivk-15" value="User Query Input&lt;br&gt;Natural language&lt;br&gt;@ mentions:&lt;br&gt;• @project:name&lt;br&gt;• @date:last_week&lt;br&gt;• #folder_name" style="rounded=1;whiteSpace=wrap;html=1;fillColor=#FFFFFF;strokeColor=#FF612B;strokeWidth=2;fontSize=11;align=center;" vertex="1" parent="1">
          <mxGeometry x="250" y="760" width="200" height="120" as="geometry" />
        </mxCell>
        <mxCell id="fET1vYGd_N3q2Cj0eivk-16" value="Query Parser&lt;br&gt;Extract filters:&lt;br&gt;• Document IDs&lt;br&gt;• Project scope&lt;br&gt;• Date ranges&lt;br&gt;• Folder paths" style="rounded=1;whiteSpace=wrap;html=1;fillColor=#E8F4FF;strokeColor=#002677;strokeWidth=2;fontSize=11;align=center;" vertex="1" parent="1">
          <mxGeometry x="490" y="760" width="200" height="120" as="geometry" />
        </mxCell>
        <mxCell id="fET1vYGd_N3q2Cj0eivk-17" value="Hybrid Retrieval System" style="rounded=1;whiteSpace=wrap;html=1;fillColor=#E8FFE8;strokeColor=#28A745;strokeWidth=2;fontSize=12;fontStyle=1;align=center;" vertex="1" parent="1">
          <mxGeometry x="730" y="760" width="300" height="30" as="geometry" />
        </mxCell>
        <mxCell id="fET1vYGd_N3q2Cj0eivk-18" value="Semantic (70%)&lt;br&gt;Query embedding&lt;br&gt;FAISS similarity&lt;br&gt;Top-k retrieval" style="rounded=1;whiteSpace=wrap;html=1;fillColor=#F0FFF0;strokeColor=#28A745;strokeWidth=1;fontSize=10;align=center;" vertex="1" parent="1">
          <mxGeometry x="740" y="800" width="135" height="65" as="geometry" />
        </mxCell>
        <mxCell id="fET1vYGd_N3q2Cj0eivk-19" value="Keyword (30%)&lt;br&gt;SQL LIKE queries&lt;br&gt;Token matching&lt;br&gt;BM25 scoring" style="rounded=1;whiteSpace=wrap;html=1;fillColor=#F0FFF0;strokeColor=#28A745;strokeWidth=1;fontSize=10;align=center;" vertex="1" parent="1">
          <mxGeometry x="885" y="800" width="135" height="65" as="geometry" />
        </mxCell>
        <mxCell id="fET1vYGd_N3q2Cj0eivk-20" value="Context Builder&lt;br&gt;Chunk selection:&lt;br&gt;• Score fusion&lt;br&gt;• Deduplication&lt;br&gt;• Max 2/document&lt;br&gt;• Context limit: 10" style="rounded=1;whiteSpace=wrap;html=1;fillColor=#FFF4EC;strokeColor=#FF612B;strokeWidth=2;fontSize=11;align=center;" vertex="1" parent="1">
          <mxGeometry x="1070" y="760" width="200" height="120" as="geometry" />
        </mxCell>
        <mxCell id="fET1vYGd_N3q2Cj0eivk-21" value="Prompt Constructor&lt;br&gt;System prompt&lt;br&gt;User question&lt;br&gt;Retrieved context&lt;br&gt;Instructions&lt;br&gt;Token optimization" style="rounded=1;whiteSpace=wrap;html=1;fillColor=#FFE5CC;strokeColor=#FFC107;strokeWidth=2;fontSize=11;align=center;" vertex="1" parent="1">
          <mxGeometry x="1310" y="760" width="200" height="120" as="geometry" />
        </mxCell>
        <mxCell id="fET1vYGd_N3q2Cj0eivk-22" value="Retrieval Algorithm Details&lt;br&gt;1. Query Embedding: Generate 3072-dim vector using text-embedding-3-large&lt;br&gt;2. Semantic Search: FAISS inner product search, returns (chunk_id, similarity)&lt;br&gt;3. Keyword Search: SQLite FTS on chunk content, case-insensitive&lt;br&gt;4. Score Fusion: weighted_score = semantic_score * 0.7 + keyword_score * 0.3&lt;br&gt;5. Filtering: Apply user/project/date/folder filters post-retrieval&lt;br&gt;6. Ranking: Sort by fused score, select top-k chunks&lt;br&gt;7. Grouping: Group by document, max 2 chunks per doc&lt;br&gt;8. Final Selection: Return top 10-50 chunks based on context_limit" style="rounded=1;whiteSpace=wrap;html=1;fillColor=#F0F0F0;strokeColor=#666666;strokeWidth=1;fontSize=9;align=center;" vertex="1" parent="1">
          <mxGeometry x="250" y="910" width="600" height="160" as="geometry" />
        </mxCell>
        <mxCell id="fET1vYGd_N3q2Cj0eivk-23" value="Special Query Handling&lt;br&gt;• Date-based Queries: Intelligent timeframe detection (last_week, current_month)&lt;br&gt;• Summary Queries: Aggregate all documents in timeframe&lt;br&gt;• Project Summaries: Process all files with flexible approach&lt;br&gt;• Folder Filtering: Direct path matching in SQLite&lt;br&gt;• Meeting Filters: Support multiple meeting IDs&lt;br&gt;• Empty Results: Fallback to broader search or helpful message&lt;br&gt;• Large Projects: Smart sampling for 50+ files&lt;br&gt;• Follow-up Generation: Context-aware question suggestions" style="rounded=1;whiteSpace=wrap;html=1;fillColor=#F0F0F0;strokeColor=#666666;strokeWidth=1;fontSize=9;align=center;" vertex="1" parent="1">
          <mxGeometry x="890" y="910" width="600" height="160" as="geometry" />
        </mxCell>
        <mxCell id="fET1vYGd_N3q2Cj0eivk-24" value="" style="rounded=1;whiteSpace=wrap;html=1;fillColor=#E8FFE8;strokeColor=#28A745;strokeWidth=3;align=center;" vertex="1" parent="1">
          <mxGeometry x="220" y="1130" width="1500" height="280" as="geometry" />
        </mxCell>
        <mxCell id="fET1vYGd_N3q2Cj0eivk-25" value="Response Generation Pipeline" style="text;html=1;strokeColor=none;fillColor=none;align=center;verticalAlign=middle;whiteSpace=wrap;rounded=0;fontSize=20;fontStyle=1;fontColor=#28A745;" vertex="1" parent="1">
          <mxGeometry x="770" y="1145" width="400" height="30" as="geometry" />
        </mxCell>
        <mxCell id="fET1vYGd_N3q2Cj0eivk-26" value="LLM Processing (GPT-4o)&lt;br&gt;&lt;br&gt;API Configuration:&lt;br&gt;• Model: gpt-4o&lt;br&gt;• Temperature: 0&lt;br&gt;• Max tokens: 4000&lt;br&gt;• Timeout: 60s&lt;br&gt;&lt;br&gt;Prompt Structure:&lt;br&gt;• System: Natural assistant&lt;br&gt;• Context + Question" style="rounded=1;whiteSpace=wrap;html=1;fillColor=#FFFFFF;strokeColor=#28A745;strokeWidth=2;fontSize=10;align=center;" vertex="1" parent="1">
          <mxGeometry x="250" y="1190" width="300" height="180" as="geometry" />
        </mxCell>
        <mxCell id="fET1vYGd_N3q2Cj0eivk-27" value="Response Processing&lt;br&gt;&lt;br&gt;Post-processing:&lt;br&gt;• Markdown formatting&lt;br&gt;• Code block handling&lt;br&gt;• Table rendering&lt;br&gt;• Link validation&lt;br&gt;&lt;br&gt;Follow-up Questions:&lt;br&gt;• Context-aware generation&lt;br&gt;• 4-5 suggestions" style="rounded=1;whiteSpace=wrap;html=1;fillColor=#FFE8E8;strokeColor=#FF612B;strokeWidth=2;fontSize=10;align=center;" vertex="1" parent="1">
          <mxGeometry x="590" y="1190" width="280" height="180" as="geometry" />
        </mxCell>
        <mxCell id="fET1vYGd_N3q2Cj0eivk-28" value="Conversation Mgmt&lt;br&gt;&lt;br&gt;History Tracking:&lt;br&gt;• User messages&lt;br&gt;• AI responses&lt;br&gt;• Timestamps&lt;br&gt;• Context preservation&lt;br&gt;&lt;br&gt;Persistence:&lt;br&gt;• LocalStorage save&lt;br&gt;• Session recovery" style="rounded=1;whiteSpace=wrap;html=1;fillColor=#E8F4FF;strokeColor=#002677;strokeWidth=2;fontSize=10;align=center;" vertex="1" parent="1">
          <mxGeometry x="910" y="1190" width="280" height="180" as="geometry" />
        </mxCell>
        <mxCell id="fET1vYGd_N3q2Cj0eivk-29" value="UI Rendering&lt;br&gt;&lt;br&gt;Display Features:&lt;br&gt;• Markdown to HTML&lt;br&gt;• marked.js + DOMPurify&lt;br&gt;• Syntax highlighting&lt;br&gt;• Copy/regenerate buttons&lt;br&gt;&lt;br&gt;Real-time Updates:&lt;br&gt;• Typing indicators&lt;br&gt;• Stream handling" style="rounded=1;whiteSpace=wrap;html=1;fillColor=#FFF4EC;strokeColor=#FF612B;strokeWidth=2;fontSize=10;align=center;" vertex="1" parent="1">
          <mxGeometry x="1230" y="1190" width="280" height="180" as="geometry" />
        </mxCell>
        <mxCell id="fET1vYGd_N3q2Cj0eivk-30" value="Performance Optimizations&lt;br&gt;&lt;br&gt;Caching Strategy:&lt;br&gt;• Stats cache: 5 minutes TTL&lt;br&gt;• Document metadata: In-memory dict&lt;br&gt;• Embeddings: Persistent FAISS index&lt;br&gt;&lt;br&gt;Batch Processing:&lt;br&gt;• Embedding generation: Batch API calls&lt;br&gt;• Document processing: Async operations&lt;br&gt;• Database operations: Bulk inserts&lt;br&gt;&lt;br&gt;Memory Management:&lt;br&gt;• Chunk size limits: 1000 chars&lt;br&gt;• Context window: 10-50 chunks&lt;br&gt;• File size limit: 50MB&lt;br&gt;&lt;br&gt;Query Optimization:&lt;br&gt;• Index on date, filename, user_id&lt;br&gt;• Prepared SQL statements&lt;br&gt;• Connection pooling" style="rounded=1;whiteSpace=wrap;html=1;fillColor=#FFE5CC;strokeColor=#FFC107;strokeWidth=2;fontSize=9;align=center;" vertex="1" parent="1">
          <mxGeometry x="220" y="1440" width="740" height="310" as="geometry" />
        </mxCell>
        <mxCell id="fET1vYGd_N3q2Cj0eivk-31" value="Security &amp;amp; Multi-tenancy&lt;br&gt;&lt;br&gt;User Isolation:&lt;br&gt;• User-specific document filtering&lt;br&gt;• Project-based access control&lt;br&gt;• Session-based authentication&lt;br&gt;&lt;br&gt;Data Security:&lt;br&gt;• bcrypt password hashing&lt;br&gt;• Secure session cookies&lt;br&gt;• SQL injection prevention&lt;br&gt;&lt;br&gt;Input Validation:&lt;br&gt;• File type validation&lt;br&gt;• Size limits enforcement&lt;br&gt;• XSS prevention (DOMPurify)&lt;br&gt;&lt;br&gt;API Security:&lt;br&gt;• Login required decorators&lt;br&gt;• CSRF protection&lt;br&gt;• Rate limiting ready" style="rounded=1;whiteSpace=wrap;html=1;fillColor=#E5F5FF;strokeColor=#17A2B8;strokeWidth=2;fontSize=9;align=center;" vertex="1" parent="1">
          <mxGeometry x="990" y="1440" width="730" height="300" as="geometry" />
        </mxCell>
        <mxCell id="fET1vYGd_N3q2Cj0eivk-32" style="edgeStyle=orthogonalEdgeStyle;rounded=0;orthogonalLoop=1;jettySize=auto;html=1;exitX=1;exitY=0.5;exitDx=0;exitDy=0;entryX=0;entryY=0.5;entryDx=0;entryDy=0;strokeWidth=2;endArrow=classic;align=center;" edge="1" parent="1" source="fET1vYGd_N3q2Cj0eivk-5" target="fET1vYGd_N3q2Cj0eivk-6">
          <mxGeometry relative="1" as="geometry" />
        </mxCell>
        <mxCell id="fET1vYGd_N3q2Cj0eivk-33" style="edgeStyle=orthogonalEdgeStyle;rounded=0;orthogonalLoop=1;jettySize=auto;html=1;exitX=1;exitY=0.5;exitDx=0;exitDy=0;entryX=0;entryY=0.5;entryDx=0;entryDy=0;strokeWidth=2;endArrow=classic;align=center;" edge="1" parent="1" source="fET1vYGd_N3q2Cj0eivk-6" target="fET1vYGd_N3q2Cj0eivk-7">
          <mxGeometry relative="1" as="geometry" />
        </mxCell>
        <mxCell id="fET1vYGd_N3q2Cj0eivk-34" style="edgeStyle=orthogonalEdgeStyle;rounded=0;orthogonalLoop=1;jettySize=auto;html=1;exitX=1;exitY=0.5;exitDx=0;exitDy=0;entryX=0;entryY=0.5;entryDx=0;entryDy=0;strokeWidth=2;endArrow=classic;align=center;" edge="1" parent="1" source="fET1vYGd_N3q2Cj0eivk-7" target="fET1vYGd_N3q2Cj0eivk-8">
          <mxGeometry relative="1" as="geometry" />
        </mxCell>
        <mxCell id="fET1vYGd_N3q2Cj0eivk-35" style="edgeStyle=orthogonalEdgeStyle;rounded=0;orthogonalLoop=1;jettySize=auto;html=1;exitX=1;exitY=0.5;exitDx=0;exitDy=0;entryX=0;entryY=0.5;entryDx=0;entryDy=0;strokeWidth=2;endArrow=classic;align=center;" edge="1" parent="1" source="fET1vYGd_N3q2Cj0eivk-8" target="fET1vYGd_N3q2Cj0eivk-9">
          <mxGeometry relative="1" as="geometry" />
        </mxCell>
        <mxCell id="fET1vYGd_N3q2Cj0eivk-36" style="edgeStyle=orthogonalEdgeStyle;rounded=0;orthogonalLoop=1;jettySize=auto;html=1;exitX=1;exitY=0.5;exitDx=0;exitDy=0;entryX=0;entryY=0.5;entryDx=0;entryDy=0;strokeWidth=2;endArrow=classic;align=center;" edge="1" parent="1" source="fET1vYGd_N3q2Cj0eivk-9" target="fET1vYGd_N3q2Cj0eivk-10">
          <mxGeometry relative="1" as="geometry" />
        </mxCell>
        <mxCell id="fET1vYGd_N3q2Cj0eivk-37" style="edgeStyle=orthogonalEdgeStyle;rounded=0;orthogonalLoop=1;jettySize=auto;html=1;exitX=1;exitY=0.5;exitDx=0;exitDy=0;entryX=0;entryY=0.5;entryDx=0;entryDy=0;strokeWidth=2;endArrow=classic;align=center;" edge="1" parent="1" source="fET1vYGd_N3q2Cj0eivk-15" target="fET1vYGd_N3q2Cj0eivk-16">
          <mxGeometry relative="1" as="geometry" />
        </mxCell>
        <mxCell id="fET1vYGd_N3q2Cj0eivk-38" style="edgeStyle=orthogonalEdgeStyle;rounded=0;orthogonalLoop=1;jettySize=auto;html=1;exitX=1;exitY=0.5;exitDx=0;exitDy=0;entryX=0;entryY=0.5;entryDx=0;entryDy=0;strokeWidth=2;endArrow=classic;align=center;" edge="1" parent="1" source="fET1vYGd_N3q2Cj0eivk-16" target="fET1vYGd_N3q2Cj0eivk-17">
          <mxGeometry relative="1" as="geometry" />
        </mxCell>
        <mxCell id="fET1vYGd_N3q2Cj0eivk-39" style="edgeStyle=orthogonalEdgeStyle;rounded=0;orthogonalLoop=1;jettySize=auto;html=1;exitX=1;exitY=0.5;exitDx=0;exitDy=0;entryX=0;entryY=0.5;entryDx=0;entryDy=0;strokeWidth=2;endArrow=classic;align=center;" edge="1" parent="1" source="fET1vYGd_N3q2Cj0eivk-17" target="fET1vYGd_N3q2Cj0eivk-20">
          <mxGeometry relative="1" as="geometry">
            <mxPoint x="1030" y="820" as="sourcePoint" />
          </mxGeometry>
        </mxCell>
        <mxCell id="fET1vYGd_N3q2Cj0eivk-40" style="edgeStyle=orthogonalEdgeStyle;rounded=0;orthogonalLoop=1;jettySize=auto;html=1;exitX=1;exitY=0.5;exitDx=0;exitDy=0;entryX=0;entryY=0.5;entryDx=0;entryDy=0;strokeWidth=2;endArrow=classic;align=center;" edge="1" parent="1" source="fET1vYGd_N3q2Cj0eivk-20" target="fET1vYGd_N3q2Cj0eivk-21">
          <mxGeometry relative="1" as="geometry" />
        </mxCell>
        <mxCell id="fET1vYGd_N3q2Cj0eivk-41" style="edgeStyle=orthogonalEdgeStyle;rounded=0;orthogonalLoop=1;jettySize=auto;html=1;exitX=1;exitY=0.5;exitDx=0;exitDy=0;entryX=0;entryY=0.5;entryDx=0;entryDy=0;strokeWidth=2;endArrow=classic;align=center;" edge="1" parent="1" source="fET1vYGd_N3q2Cj0eivk-26" target="fET1vYGd_N3q2Cj0eivk-27">
          <mxGeometry relative="1" as="geometry" />
        </mxCell>
        <mxCell id="fET1vYGd_N3q2Cj0eivk-42" style="edgeStyle=orthogonalEdgeStyle;rounded=0;orthogonalLoop=1;jettySize=auto;html=1;exitX=1;exitY=0.5;exitDx=0;exitDy=0;entryX=0;entryY=0.5;entryDx=0;entryDy=0;strokeWidth=2;endArrow=classic;align=center;" edge="1" parent="1" source="fET1vYGd_N3q2Cj0eivk-27" target="fET1vYGd_N3q2Cj0eivk-28">
          <mxGeometry relative="1" as="geometry" />
        </mxCell>
        <mxCell id="fET1vYGd_N3q2Cj0eivk-43" style="edgeStyle=orthogonalEdgeStyle;rounded=0;orthogonalLoop=1;jettySize=auto;html=1;exitX=1;exitY=0.5;exitDx=0;exitDy=0;entryX=0;entryY=0.5;entryDx=0;entryDy=0;strokeWidth=2;endArrow=classic;align=center;" edge="1" parent="1" source="fET1vYGd_N3q2Cj0eivk-28" target="fET1vYGd_N3q2Cj0eivk-29">
          <mxGeometry relative="1" as="geometry" />
        </mxCell>
      </root>
    </mxGraphModel>
  </diagram>
</mxfile>
